<svg width="17" height="16" viewBox="0 0 17 16" fill="none" xmlns="http://www.w3.org/2000/svg">
<path d="M3.78333 2.16652C3.78311 2.60855 3.60731 3.03239 3.29459 3.34479C2.98187 3.6572 2.55786 3.83258 2.11583 3.83236C1.67381 3.83214 1.24997 3.65633 0.937567 3.34361C0.625163 3.0309 0.44978 2.60688 0.450001 2.16486C0.450222 1.72283 0.626029 1.29899 0.938746 0.98659C1.25146 0.674185 1.67547 0.498803 2.1175 0.499024C2.55953 0.499245 2.98336 0.675051 3.29577 0.987768C3.60817 1.30049 3.78356 1.7245 3.78333 2.16652ZM3.83333 5.06652H0.500001V15.4999H3.83333V5.06652ZM9.1 5.06652H5.78333V15.4999H9.06667V10.0249C9.06667 6.97486 13.0417 6.69152 13.0417 10.0249V15.4999H16.3333V8.89152C16.3333 3.74986 10.45 3.94152 9.06667 6.46652L9.1 5.06652Z" fill="black"/>
</svg>
