<svg width="14" height="19" viewBox="0 0 14 19" fill="none" xmlns="http://www.w3.org/2000/svg">
<path d="M0.333332 18.3333C0.333332 16.5651 1.03571 14.8694 2.28595 13.6192C3.5362 12.369 5.23189 11.6666 7 11.6666C8.76811 11.6666 10.4638 12.369 11.714 13.6192C12.9643 14.8694 13.6667 16.5651 13.6667 18.3333H12C12 17.0072 11.4732 15.7354 10.5355 14.7977C9.59785 13.86 8.32608 13.3333 7 13.3333C5.67392 13.3333 4.40215 13.86 3.46446 14.7977C2.52678 15.7354 2 17.0072 2 18.3333H0.333332ZM7 10.8333C4.2375 10.8333 2 8.59575 2 5.83325C2 3.07075 4.2375 0.833252 7 0.833252C9.7625 0.833252 12 3.07075 12 5.83325C12 8.59575 9.7625 10.8333 7 10.8333ZM7 9.16658C8.84167 9.16658 10.3333 7.67492 10.3333 5.83325C10.3333 3.99159 8.84167 2.49992 7 2.49992C5.15833 2.49992 3.66667 3.99159 3.66667 5.83325C3.66667 7.67492 5.15833 9.16658 7 9.16658Z" fill="black"/>
</svg>
