<svg width="16" height="19" viewBox="0 0 16 19" fill="none" xmlns="http://www.w3.org/2000/svg">
<path d="M14.7358 12.6668L15.7375 13.2676C15.7993 13.3046 15.8504 13.357 15.886 13.4196C15.9215 13.4823 15.9401 13.5531 15.9401 13.6251C15.9401 13.6971 15.9215 13.7679 15.886 13.8306C15.8504 13.8932 15.7993 13.9456 15.7375 13.9826L8.42917 18.3676C8.29956 18.4455 8.1512 18.4866 8 18.4866C7.8488 18.4866 7.70044 18.4455 7.57083 18.3676L0.262498 13.9826C0.200704 13.9456 0.149553 13.8932 0.114037 13.8306C0.0785212 13.7679 0.0598526 13.6971 0.0598526 13.6251C0.0598526 13.5531 0.0785212 13.4823 0.114037 13.4196C0.149553 13.357 0.200704 13.3046 0.262498 13.2676L1.26417 12.6668L8 16.7084L14.7358 12.6668ZM14.7358 8.7501L15.7375 9.35093C15.7993 9.38793 15.8504 9.44031 15.886 9.50296C15.9215 9.56562 15.9401 9.63641 15.9401 9.70843C15.9401 9.78045 15.9215 9.85125 15.886 9.9139C15.8504 9.97656 15.7993 10.0289 15.7375 10.0659L8 14.7084L0.262498 10.0659C0.200704 10.0289 0.149553 9.97656 0.114037 9.9139C0.0785212 9.85125 0.0598526 9.78045 0.0598526 9.70843C0.0598526 9.63641 0.0785212 9.56562 0.114037 9.50296C0.149553 9.44031 0.200704 9.38793 0.262498 9.35093L1.26417 8.7501L8 12.7918L14.7358 8.7501ZM8.42833 1.09093L15.7375 5.47593C15.7993 5.51293 15.8504 5.56531 15.886 5.62796C15.9215 5.69062 15.9401 5.76141 15.9401 5.83343C15.9401 5.90545 15.9215 5.97625 15.886 6.0389C15.8504 6.10156 15.7993 6.15394 15.7375 6.19093L8 10.8334L0.262498 6.19093C0.200704 6.15394 0.149553 6.10156 0.114037 6.0389C0.0785212 5.97625 0.0598526 5.90545 0.0598526 5.83343C0.0598526 5.76141 0.0785212 5.69062 0.114037 5.62796C0.149553 5.56531 0.200704 5.51293 0.262498 5.47593L7.57083 1.09093C7.70044 1.01306 7.8488 0.971924 8 0.971924C8.1512 0.971924 8.29956 1.01306 8.42917 1.09093H8.42833ZM8 2.77677L2.90583 5.83343L8 8.8901L13.0942 5.83343L8 2.77677Z" fill="black"/>
</svg>
